# This file uses centimeters as units for non-parametric coordinates.

mtllib frame.mtl
g default
v -3.880036 -3.001393 4.412496
v 3.920901 -3.001393 4.412496
v -3.880036 2.973655 4.412496
v 3.920901 2.973655 4.412496
v -3.359974 -2.603056 4.412496
v 3.400839 -2.603056 4.412496
v 3.400839 2.575318 4.412496
v -3.359974 2.575318 4.412496
v -3.359974 -2.603056 4.030165
v 3.400839 -2.603056 4.030165
v 3.400839 2.575318 4.030165
v -3.359974 2.575318 4.030165
vt 0.998008 0.001887
vt 0.998008 0.409396
vt 0.967921 0.409396
vt 0.967921 0.001887
vt 0.931698 0.945425
vt 0.931698 0.537916
vt 0.961785 0.537916
vt 0.961785 0.945425
vt 0.894807 0.533925
vt 0.894807 0.001887
vt 0.924894 0.001887
vt 0.924894 0.533925
vt 0.961925 0.001887
vt 0.961925 0.533925
vt 0.931837 0.533925
vt 0.931837 0.001887
vt 0.000000 0.120277
vt 1.000000 0.118350
vt 1.000000 0.879724
vt 0.000000 0.881651
vt 0.001992 0.615777
vt 0.001992 0.001887
vt 0.033339 0.042813
vt 0.033339 0.574851
vt 0.472195 0.001887
vt 0.440848 0.042813
vt 0.472195 0.615777
vt 0.440848 0.574851
vn 0.000000 0.000000 1.000000
vn 0.000000 0.000000 1.000000
vn 0.000000 0.000000 1.000000
vn 0.000000 0.000000 1.000000
vn -0.000000 -0.000000 1.000000
vn 0.000000 -0.000000 1.000000
vn 0.000000 -0.000000 1.000000
vn -0.000000 -0.000000 1.000000
vn 0.000000 0.000000 1.000000
vn 0.000000 0.000000 1.000000
vn -0.000000 0.000000 1.000000
vn -0.000000 0.000000 1.000000
vn 0.000000 1.000000 0.000000
vn 0.000000 1.000000 0.000000
vn 0.000000 1.000000 0.000000
vn 0.000000 1.000000 0.000000
vn -1.000000 0.000000 0.000000
vn -1.000000 0.000000 0.000000
vn -1.000000 0.000000 0.000000
vn -1.000000 0.000000 0.000000
vn 0.000000 -1.000000 0.000000
vn 0.000000 -1.000000 0.000000
vn 0.000000 -1.000000 0.000000
vn 0.000000 -1.000000 0.000000
vn 1.000000 0.000000 0.000000
vn 1.000000 0.000000 0.000000
vn 1.000000 0.000000 0.000000
vn 1.000000 0.000000 0.000000
s off
g pCube1
usemtl lambert4SG
f 9/17/1 10/18/2 11/19/3 12/20/4
s 1
usemtl initialShadingGroup
f 1/21/5 2/22/6 6/23/7 5/24/8
f 2/22/6 4/25/9 7/26/10 6/23/7
f 4/25/9 3/27/11 8/28/12 7/26/10
f 3/27/11 1/21/5 5/24/8 8/28/12
s off
f 5/9/13 6/10/14 10/11/15 9/12/16
f 6/1/17 7/2/18 11/3/19 10/4/20
f 7/13/21 8/14/22 12/15/23 11/16/24
f 8/5/25 5/6/26 9/7/27 12/8/28
